<svg width="1008" height="1008" viewBox="0 0 1008 1008" fill="none" xmlns="http://www.w3.org/2000/svg">
<g filter="url(#filter0_i_0_1)">
<circle cx="504" cy="504" r="502.5" stroke="#FECD1A" stroke-width="3"/>
</g>
<g filter="url(#filter1_dd_0_1)">
<path d="M504 731.5V600.5L433.5 640.5L452.5 685.651M504 731.5L471.5 730.801M504 731.5L484 667L452.5 685.651M471.5 730.801L411 729.5L399 640.5L437.514 503.5M471.5 730.801L452.5 685.651M197 412.5L243.5 667L471.5 774H504M197 412.5L221.692 350L171 297.5L156.5 166L221.692 113.5L328.5 154L369.332 245M197 412.5L369.332 245M369.332 245L411 204.5H504V267L437.514 503.5M437.514 503.5L399 451L342.5 481L399 503.5" stroke="#FECD1A" stroke-width="3" shape-rendering="crispEdges"/>
</g>
<path d="M398.5 504H435V409.38M435 409.38V358H380.5L348 391.066L435 409.38Z" stroke="#FECD1A" stroke-width="3"/>
<path d="M283.5 219.5L299.5 310L233 257.5V201L283.5 219.5Z" stroke="#FECD1A" stroke-width="3"/>
<path d="M197 416.972L298.033 563.465M298.033 563.465L316.5 701M298.033 563.465L370.814 247L504 273.542L462.41 416.972M411.5 730L432.5 755.5" stroke="#FECD1A" stroke-width="3"/>
<g filter="url(#filter2_dd_0_1)">
<path d="M504 732V601L574.5 641L555.5 686.151M504 732L536.5 731.301M504 732L524 667.5L555.5 686.151M536.5 731.301L597 730L609 641L570.486 504M536.5 731.301L555.5 686.151M811 413L764.5 667.5L536.5 774.5H504M811 413L786.308 350.5L837 298L851.5 166.5L786.308 114L679.5 154.5L638.668 245.5M811 413L638.668 245.5M638.668 245.5L597 205H504V267.5L570.486 504M570.486 504L609 451.5L665.5 481.5L609 504" stroke="#FECD1A" stroke-width="3" shape-rendering="crispEdges"/>
</g>
<path d="M609.5 504.5H573V409.88M573 409.88V358.5H627.5L660 391.566L573 409.88Z" stroke="#FECD1A" stroke-width="3"/>
<path d="M724.5 220L708.5 310.5L775 258V201.5L724.5 220Z" stroke="#FECD1A" stroke-width="3"/>
<path d="M811 417.472L709.967 563.965M709.967 563.965L691.5 701.5M709.967 563.965L637.186 247.5L504 274.042L545.59 417.472M596.5 730.5L575.5 756" stroke="#FECD1A" stroke-width="3"/>
<g filter="url(#filter3_d_0_1)">
<path d="M225.744 798.224C236.325 798.224 243.835 800.571 248.272 805.264L245.712 808.08C241.616 804.069 235.131 802.064 226.256 802.064C212.944 802.064 206.288 807.355 206.288 817.936C206.288 822.032 207.909 825.317 211.152 827.792C214.395 830.181 218.32 832.016 222.928 833.296C227.621 834.576 232.272 835.941 236.88 837.392C241.573 838.757 245.541 841.019 248.784 844.176C252.027 847.248 253.648 851.301 253.648 856.336C253.648 862.224 251.216 866.917 246.352 870.416C241.488 873.915 234.448 875.664 225.232 875.664C220.709 875.664 216.229 875.067 211.792 873.872C207.44 872.677 204.197 870.928 202.064 868.624L204.624 865.808C208.976 869.819 215.675 871.824 224.72 871.824C232.997 871.824 239.227 870.288 243.408 867.216C247.675 864.144 249.808 860.56 249.808 856.464C249.808 852.197 248.187 848.741 244.944 846.096C241.701 843.451 237.733 841.488 233.04 840.208C228.432 838.843 223.781 837.477 219.088 836.112C214.48 834.661 210.555 832.443 207.312 829.456C204.069 826.469 202.448 822.544 202.448 817.68C202.448 811.109 204.624 806.245 208.976 803.088C213.413 799.845 219.003 798.224 225.744 798.224ZM274.845 799.76V836.88C274.845 849.595 276.85 858.555 280.861 863.76C284.957 868.88 290.546 871.44 297.629 871.44C304.712 871.44 310.258 868.88 314.269 863.76C318.365 858.555 320.413 849.595 320.413 836.88V799.76H324.253V836.88C324.253 862.48 315.378 875.28 297.629 875.28C279.88 875.28 271.005 862.48 271.005 836.88V799.76H274.845ZM379.029 846.352L377.109 843.024L384.277 838.928C390.165 835.685 393.109 830.523 393.109 823.44C393.109 810.213 383.04 803.6 362.901 803.6H351.125V899.6H347.285V799.76H362.901C374.165 799.76 382.656 801.851 388.373 806.032C394.09 810.128 396.949 815.931 396.949 823.44C396.949 831.973 393.365 838.245 386.197 842.256L379.029 846.352ZM464.699 866.448C460.006 872.336 452.326 875.28 441.659 875.28C430.992 875.28 423.355 872.251 418.747 866.192C414.139 860.133 411.835 850.363 411.835 836.88C411.835 823.397 414.139 813.627 418.747 807.568C423.355 801.509 430.992 798.48 441.659 798.48C454.032 798.48 462.438 802.533 466.875 810.64L435.515 836.88H429.499L461.883 809.872C458.128 804.837 451.387 802.32 441.659 802.32C437.392 802.32 433.808 802.789 430.907 803.728C428.006 804.581 425.318 806.245 422.843 808.72C420.454 811.109 418.662 814.651 417.467 819.344C416.272 823.952 415.675 829.797 415.675 836.88C415.675 843.963 416.272 849.851 417.467 854.544C418.662 859.152 420.454 862.693 422.843 865.168C425.318 867.557 428.006 869.221 430.907 870.16C433.808 871.013 437.392 871.44 441.659 871.44C451.387 871.44 458.128 868.923 461.883 863.888L464.699 866.448ZM516.392 836.752L533.8 874H529.576L511.656 835.6C511.827 835.515 512.552 835.173 513.832 834.576C515.197 833.893 516.136 833.424 516.648 833.168C517.16 832.827 518.013 832.272 519.208 831.504C520.403 830.736 521.299 830.011 521.896 829.328C522.493 828.56 523.133 827.707 523.816 826.768C524.584 825.744 525.139 824.635 525.48 823.44C525.821 822.16 525.992 820.795 525.992 819.344C525.992 813.968 523.432 810 518.312 807.44C513.192 804.88 506.835 803.6 499.24 803.6H489V874H485.16V799.76H499.24C509.309 799.76 516.904 801.509 522.024 805.008C527.229 808.507 529.832 813.285 529.832 819.344C529.832 823.269 528.509 826.768 525.864 829.84C523.219 832.827 520.061 835.131 516.392 836.752ZM553.72 799.76V836.88C553.72 849.595 555.725 858.555 559.736 863.76C563.832 868.88 569.421 871.44 576.504 871.44C583.587 871.44 589.133 868.88 593.144 863.76C597.24 858.555 599.288 849.595 599.288 836.88V799.76H603.128V836.88C603.128 862.48 594.253 875.28 576.504 875.28C558.755 875.28 549.88 862.48 549.88 836.88V799.76H553.72ZM657.392 836.752L674.8 874H670.576L652.656 835.6C652.827 835.515 653.552 835.173 654.832 834.576C656.197 833.893 657.136 833.424 657.648 833.168C658.16 832.827 659.013 832.272 660.208 831.504C661.403 830.736 662.299 830.011 662.896 829.328C663.493 828.56 664.133 827.707 664.816 826.768C665.584 825.744 666.139 824.635 666.48 823.44C666.821 822.16 666.992 820.795 666.992 819.344C666.992 813.968 664.432 810 659.312 807.44C654.192 804.88 647.835 803.6 640.24 803.6H630V874H626.16V799.76H640.24C650.309 799.76 657.904 801.509 663.024 805.008C668.229 808.507 670.832 813.285 670.832 819.344C670.832 823.269 669.509 826.768 666.864 829.84C664.219 832.827 661.061 835.131 657.392 836.752ZM711.744 798.224C722.325 798.224 729.835 800.571 734.272 805.264L731.712 808.08C727.616 804.069 721.131 802.064 712.256 802.064C698.944 802.064 692.288 807.355 692.288 817.936C692.288 822.032 693.909 825.317 697.152 827.792C700.395 830.181 704.32 832.016 708.928 833.296C713.621 834.576 718.272 835.941 722.88 837.392C727.573 838.757 731.541 841.019 734.784 844.176C738.027 847.248 739.648 851.301 739.648 856.336C739.648 862.224 737.216 866.917 732.352 870.416C727.488 873.915 720.448 875.664 711.232 875.664C706.709 875.664 702.229 875.067 697.792 873.872C693.44 872.677 690.197 870.928 688.064 868.624L690.624 865.808C694.976 869.819 701.675 871.824 710.72 871.824C718.997 871.824 725.227 870.288 729.408 867.216C733.675 864.144 735.808 860.56 735.808 856.464C735.808 852.197 734.187 848.741 730.944 846.096C727.701 843.451 723.733 841.488 719.04 840.208C714.432 838.843 709.781 837.477 705.088 836.112C700.48 834.661 696.555 832.443 693.312 829.456C690.069 826.469 688.448 822.544 688.448 817.68C688.448 811.109 690.624 806.245 694.976 803.088C699.413 799.845 705.003 798.224 711.744 798.224ZM765.069 870.16H806.797L780.557 808.336L752.653 874H748.557L780.557 798.48L812.557 874H765.069V870.16Z" fill="#FD3A69"/>
</g>
<defs>
<filter id="filter0_i_0_1" x="0" y="0" width="1008" height="1012" filterUnits="userSpaceOnUse" color-interpolation-filters="sRGB">
<feFlood flood-opacity="0" result="BackgroundImageFix"/>
<feBlend mode="normal" in="SourceGraphic" in2="BackgroundImageFix" result="shape"/>
<feColorMatrix in="SourceAlpha" type="matrix" values="0 0 0 0 0 0 0 0 0 0 0 0 0 0 0 0 0 0 127 0" result="hardAlpha"/>
<feOffset dy="4"/>
<feGaussianBlur stdDeviation="2"/>
<feComposite in2="hardAlpha" operator="arithmetic" k2="-1" k3="1"/>
<feColorMatrix type="matrix" values="0 0 0 0 0 0 0 0 0 0 0 0 0 0 0 0 0 0 0.25 0"/>
<feBlend mode="normal" in2="shape" result="effect1_innerShadow_0_1"/>
</filter>
<filter id="filter1_dd_0_1" x="150.919" y="111.793" width="358.581" height="671.707" filterUnits="userSpaceOnUse" color-interpolation-filters="sRGB">
<feFlood flood-opacity="0" result="BackgroundImageFix"/>
<feColorMatrix in="SourceAlpha" type="matrix" values="0 0 0 0 0 0 0 0 0 0 0 0 0 0 0 0 0 0 127 0" result="hardAlpha"/>
<feOffset dy="4"/>
<feGaussianBlur stdDeviation="2"/>
<feComposite in2="hardAlpha" operator="out"/>
<feColorMatrix type="matrix" values="0 0 0 0 0 0 0 0 0 0 0 0 0 0 0 0 0 0 0.25 0"/>
<feBlend mode="normal" in2="BackgroundImageFix" result="effect1_dropShadow_0_1"/>
<feColorMatrix in="SourceAlpha" type="matrix" values="0 0 0 0 0 0 0 0 0 0 0 0 0 0 0 0 0 0 127 0" result="hardAlpha"/>
<feOffset dy="4"/>
<feGaussianBlur stdDeviation="2"/>
<feComposite in2="hardAlpha" operator="out"/>
<feColorMatrix type="matrix" values="0 0 0 0 0 0 0 0 0 0 0 0 0 0 0 0 0 0 0.25 0"/>
<feBlend mode="normal" in2="effect1_dropShadow_0_1" result="effect2_dropShadow_0_1"/>
<feBlend mode="normal" in="SourceGraphic" in2="effect2_dropShadow_0_1" result="shape"/>
</filter>
<filter id="filter2_dd_0_1" x="498.5" y="112.293" width="358.581" height="671.707" filterUnits="userSpaceOnUse" color-interpolation-filters="sRGB">
<feFlood flood-opacity="0" result="BackgroundImageFix"/>
<feColorMatrix in="SourceAlpha" type="matrix" values="0 0 0 0 0 0 0 0 0 0 0 0 0 0 0 0 0 0 127 0" result="hardAlpha"/>
<feOffset dy="4"/>
<feGaussianBlur stdDeviation="2"/>
<feComposite in2="hardAlpha" operator="out"/>
<feColorMatrix type="matrix" values="0 0 0 0 0 0 0 0 0 0 0 0 0 0 0 0 0 0 0.25 0"/>
<feBlend mode="normal" in2="BackgroundImageFix" result="effect1_dropShadow_0_1"/>
<feColorMatrix in="SourceAlpha" type="matrix" values="0 0 0 0 0 0 0 0 0 0 0 0 0 0 0 0 0 0 127 0" result="hardAlpha"/>
<feOffset dy="4"/>
<feGaussianBlur stdDeviation="2"/>
<feComposite in2="hardAlpha" operator="out"/>
<feColorMatrix type="matrix" values="0 0 0 0 0 0 0 0 0 0 0 0 0 0 0 0 0 0 0.25 0"/>
<feBlend mode="normal" in2="effect1_dropShadow_0_1" result="effect2_dropShadow_0_1"/>
<feBlend mode="normal" in="SourceGraphic" in2="effect2_dropShadow_0_1" result="shape"/>
</filter>
<filter id="filter3_d_0_1" x="198.064" y="798.224" width="618.493" height="109.376" filterUnits="userSpaceOnUse" color-interpolation-filters="sRGB">
<feFlood flood-opacity="0" result="BackgroundImageFix"/>
<feColorMatrix in="SourceAlpha" type="matrix" values="0 0 0 0 0 0 0 0 0 0 0 0 0 0 0 0 0 0 127 0" result="hardAlpha"/>
<feOffset dy="4"/>
<feGaussianBlur stdDeviation="2"/>
<feComposite in2="hardAlpha" operator="out"/>
<feColorMatrix type="matrix" values="0 0 0 0 0 0 0 0 0 0 0 0 0 0 0 0 0 0 0.25 0"/>
<feBlend mode="normal" in2="BackgroundImageFix" result="effect1_dropShadow_0_1"/>
<feBlend mode="normal" in="SourceGraphic" in2="effect1_dropShadow_0_1" result="shape"/>
</filter>
</defs>
</svg>
