<svg width="1059" height="1008" viewBox="0 0 1059 1008" fill="none" xmlns="http://www.w3.org/2000/svg">
<g filter="url(#filter0_i_0_1)">
<path d="M1057.5 504C1057.5 781.454 821.177 1006.5 529.5 1006.5C237.823 1006.5 1.5 781.454 1.5 504C1.5 226.546 237.823 1.5 529.5 1.5C821.177 1.5 1057.5 226.546 1057.5 504Z" stroke="#FECD1A" stroke-width="3"/>
</g>
<g filter="url(#filter1_dd_0_1)">
<path d="M529 731.5V600.5L458.5 640.5L477.5 685.651M529 731.5L496.5 730.801M529 731.5L509 667L477.5 685.651M496.5 730.801L436 729.5L424 640.5L462.514 503.5M496.5 730.801L477.5 685.651M222 412.5L268.5 667L496.5 774H529M222 412.5L246.692 350L196 297.5L181.5 166L246.692 113.5L353.5 154L394.332 245M222 412.5L394.332 245M394.332 245L436 204.5H529V267L462.514 503.5M462.514 503.5L424 451L367.5 481L424 503.5" stroke="#FECD1A" stroke-width="3" shape-rendering="crispEdges"/>
</g>
<path d="M423.5 504H460V409.38M460 409.38V358H405.5L373 391.066L460 409.38Z" stroke="#FECD1A" stroke-width="3"/>
<path d="M308.5 219.5L324.5 310L258 257.5V201L308.5 219.5Z" stroke="#FECD1A" stroke-width="3"/>
<path d="M222 416.972L323.033 563.465M323.033 563.465L341.5 701M323.033 563.465L395.814 247L529 273.542L487.41 416.972M436.5 730L457.5 755.5" stroke="#FECD1A" stroke-width="3"/>
<g filter="url(#filter2_dd_0_1)">
<path d="M529 731V600L599.5 640L580.5 685.151M529 731L561.5 730.301M529 731L549 666.5L580.5 685.151M561.5 730.301L622 729L634 640L595.486 503M561.5 730.301L580.5 685.151M836 412L789.5 666.5L561.5 773.5H529M836 412L811.308 349.5L862 297L876.5 165.5L811.308 113L704.5 153.5L663.668 244.5M836 412L663.668 244.5M663.668 244.5L622 204H529V266.5L595.486 503M595.486 503L634 450.5L690.5 480.5L634 503" stroke="#FECD1A" stroke-width="3" shape-rendering="crispEdges"/>
</g>
<path d="M634.5 503.5H598V408.88M598 408.88V357.5H652.5L685 390.566L598 408.88Z" stroke="#FECD1A" stroke-width="3"/>
<path d="M749.5 219L733.5 309.5L800 257V200.5L749.5 219Z" stroke="#FECD1A" stroke-width="3"/>
<path d="M836 416.472L734.967 562.965M734.967 562.965L716.5 700.5M734.967 562.965L662.186 246.5L529 273.042L570.59 416.472M621.5 729.5L600.5 755" stroke="#FECD1A" stroke-width="3"/>
<g filter="url(#filter3_d_0_1)">
<path d="M250.744 798.224C261.325 798.224 268.835 800.571 273.272 805.264L270.712 808.08C266.616 804.069 260.131 802.064 251.256 802.064C237.944 802.064 231.288 807.355 231.288 817.936C231.288 822.032 232.909 825.317 236.152 827.792C239.395 830.181 243.32 832.016 247.928 833.296C252.621 834.576 257.272 835.941 261.88 837.392C266.573 838.757 270.541 841.019 273.784 844.176C277.027 847.248 278.648 851.301 278.648 856.336C278.648 862.224 276.216 866.917 271.352 870.416C266.488 873.915 259.448 875.664 250.232 875.664C245.709 875.664 241.229 875.067 236.792 873.872C232.44 872.677 229.197 870.928 227.064 868.624L229.624 865.808C233.976 869.819 240.675 871.824 249.72 871.824C257.997 871.824 264.227 870.288 268.408 867.216C272.675 864.144 274.808 860.56 274.808 856.464C274.808 852.197 273.187 848.741 269.944 846.096C266.701 843.451 262.733 841.488 258.04 840.208C253.432 838.843 248.781 837.477 244.088 836.112C239.48 834.661 235.555 832.443 232.312 829.456C229.069 826.469 227.448 822.544 227.448 817.68C227.448 811.109 229.624 806.245 233.976 803.088C238.413 799.845 244.003 798.224 250.744 798.224ZM299.845 799.76V836.88C299.845 849.595 301.85 858.555 305.861 863.76C309.957 868.88 315.546 871.44 322.629 871.44C329.712 871.44 335.258 868.88 339.269 863.76C343.365 858.555 345.413 849.595 345.413 836.88V799.76H349.253V836.88C349.253 862.48 340.378 875.28 322.629 875.28C304.88 875.28 296.005 862.48 296.005 836.88V799.76H299.845ZM404.029 846.352L402.109 843.024L409.277 838.928C415.165 835.685 418.109 830.523 418.109 823.44C418.109 810.213 408.04 803.6 387.901 803.6H376.125V899.6H372.285V799.76H387.901C399.165 799.76 407.656 801.851 413.373 806.032C419.09 810.128 421.949 815.931 421.949 823.44C421.949 831.973 418.365 838.245 411.197 842.256L404.029 846.352ZM489.699 866.448C485.006 872.336 477.326 875.28 466.659 875.28C455.992 875.28 448.355 872.251 443.747 866.192C439.139 860.133 436.835 850.363 436.835 836.88C436.835 823.397 439.139 813.627 443.747 807.568C448.355 801.509 455.992 798.48 466.659 798.48C479.032 798.48 487.438 802.533 491.875 810.64L460.515 836.88H454.499L486.883 809.872C483.128 804.837 476.387 802.32 466.659 802.32C462.392 802.32 458.808 802.789 455.907 803.728C453.006 804.581 450.318 806.245 447.843 808.72C445.454 811.109 443.662 814.651 442.467 819.344C441.272 823.952 440.675 829.797 440.675 836.88C440.675 843.963 441.272 849.851 442.467 854.544C443.662 859.152 445.454 862.693 447.843 865.168C450.318 867.557 453.006 869.221 455.907 870.16C458.808 871.013 462.392 871.44 466.659 871.44C476.387 871.44 483.128 868.923 486.883 863.888L489.699 866.448ZM541.392 836.752L558.8 874H554.576L536.656 835.6C536.827 835.515 537.552 835.173 538.832 834.576C540.197 833.893 541.136 833.424 541.648 833.168C542.16 832.827 543.013 832.272 544.208 831.504C545.403 830.736 546.299 830.011 546.896 829.328C547.493 828.56 548.133 827.707 548.816 826.768C549.584 825.744 550.139 824.635 550.48 823.44C550.821 822.16 550.992 820.795 550.992 819.344C550.992 813.968 548.432 810 543.312 807.44C538.192 804.88 531.835 803.6 524.24 803.6H514V874H510.16V799.76H524.24C534.309 799.76 541.904 801.509 547.024 805.008C552.229 808.507 554.832 813.285 554.832 819.344C554.832 823.269 553.509 826.768 550.864 829.84C548.219 832.827 545.061 835.131 541.392 836.752ZM578.72 799.76V836.88C578.72 849.595 580.725 858.555 584.736 863.76C588.832 868.88 594.421 871.44 601.504 871.44C608.587 871.44 614.133 868.88 618.144 863.76C622.24 858.555 624.288 849.595 624.288 836.88V799.76H628.128V836.88C628.128 862.48 619.253 875.28 601.504 875.28C583.755 875.28 574.88 862.48 574.88 836.88V799.76H578.72ZM682.392 836.752L699.8 874H695.576L677.656 835.6C677.827 835.515 678.552 835.173 679.832 834.576C681.197 833.893 682.136 833.424 682.648 833.168C683.16 832.827 684.013 832.272 685.208 831.504C686.403 830.736 687.299 830.011 687.896 829.328C688.493 828.56 689.133 827.707 689.816 826.768C690.584 825.744 691.139 824.635 691.48 823.44C691.821 822.16 691.992 820.795 691.992 819.344C691.992 813.968 689.432 810 684.312 807.44C679.192 804.88 672.835 803.6 665.24 803.6H655V874H651.16V799.76H665.24C675.309 799.76 682.904 801.509 688.024 805.008C693.229 808.507 695.832 813.285 695.832 819.344C695.832 823.269 694.509 826.768 691.864 829.84C689.219 832.827 686.061 835.131 682.392 836.752ZM736.744 798.224C747.325 798.224 754.835 800.571 759.272 805.264L756.712 808.08C752.616 804.069 746.131 802.064 737.256 802.064C723.944 802.064 717.288 807.355 717.288 817.936C717.288 822.032 718.909 825.317 722.152 827.792C725.395 830.181 729.32 832.016 733.928 833.296C738.621 834.576 743.272 835.941 747.88 837.392C752.573 838.757 756.541 841.019 759.784 844.176C763.027 847.248 764.648 851.301 764.648 856.336C764.648 862.224 762.216 866.917 757.352 870.416C752.488 873.915 745.448 875.664 736.232 875.664C731.709 875.664 727.229 875.067 722.792 873.872C718.44 872.677 715.197 870.928 713.064 868.624L715.624 865.808C719.976 869.819 726.675 871.824 735.72 871.824C743.997 871.824 750.227 870.288 754.408 867.216C758.675 864.144 760.808 860.56 760.808 856.464C760.808 852.197 759.187 848.741 755.944 846.096C752.701 843.451 748.733 841.488 744.04 840.208C739.432 838.843 734.781 837.477 730.088 836.112C725.48 834.661 721.555 832.443 718.312 829.456C715.069 826.469 713.448 822.544 713.448 817.68C713.448 811.109 715.624 806.245 719.976 803.088C724.413 799.845 730.003 798.224 736.744 798.224ZM790.069 870.16H831.797L805.557 808.336L777.653 874H773.557L805.557 798.48L837.557 874H790.069V870.16Z" fill="#FD3A69"/>
</g>
<defs>
<filter id="filter0_i_0_1" x="0" y="0" width="1059" height="1012" filterUnits="userSpaceOnUse" color-interpolation-filters="sRGB">
<feFlood flood-opacity="0" result="BackgroundImageFix"/>
<feBlend mode="normal" in="SourceGraphic" in2="BackgroundImageFix" result="shape"/>
<feColorMatrix in="SourceAlpha" type="matrix" values="0 0 0 0 0 0 0 0 0 0 0 0 0 0 0 0 0 0 127 0" result="hardAlpha"/>
<feOffset dy="4"/>
<feGaussianBlur stdDeviation="2"/>
<feComposite in2="hardAlpha" operator="arithmetic" k2="-1" k3="1"/>
<feColorMatrix type="matrix" values="0 0 0 0 0 0 0 0 0 0 0 0 0 0 0 0 0 0 0.25 0"/>
<feBlend mode="normal" in2="shape" result="effect1_innerShadow_0_1"/>
</filter>
<filter id="filter1_dd_0_1" x="175.919" y="111.793" width="358.581" height="671.707" filterUnits="userSpaceOnUse" color-interpolation-filters="sRGB">
<feFlood flood-opacity="0" result="BackgroundImageFix"/>
<feColorMatrix in="SourceAlpha" type="matrix" values="0 0 0 0 0 0 0 0 0 0 0 0 0 0 0 0 0 0 127 0" result="hardAlpha"/>
<feOffset dy="4"/>
<feGaussianBlur stdDeviation="2"/>
<feComposite in2="hardAlpha" operator="out"/>
<feColorMatrix type="matrix" values="0 0 0 0 0 0 0 0 0 0 0 0 0 0 0 0 0 0 0.25 0"/>
<feBlend mode="normal" in2="BackgroundImageFix" result="effect1_dropShadow_0_1"/>
<feColorMatrix in="SourceAlpha" type="matrix" values="0 0 0 0 0 0 0 0 0 0 0 0 0 0 0 0 0 0 127 0" result="hardAlpha"/>
<feOffset dy="4"/>
<feGaussianBlur stdDeviation="2"/>
<feComposite in2="hardAlpha" operator="out"/>
<feColorMatrix type="matrix" values="0 0 0 0 0 0 0 0 0 0 0 0 0 0 0 0 0 0 0.25 0"/>
<feBlend mode="normal" in2="effect1_dropShadow_0_1" result="effect2_dropShadow_0_1"/>
<feBlend mode="normal" in="SourceGraphic" in2="effect2_dropShadow_0_1" result="shape"/>
</filter>
<filter id="filter2_dd_0_1" x="523.5" y="111.293" width="358.581" height="671.707" filterUnits="userSpaceOnUse" color-interpolation-filters="sRGB">
<feFlood flood-opacity="0" result="BackgroundImageFix"/>
<feColorMatrix in="SourceAlpha" type="matrix" values="0 0 0 0 0 0 0 0 0 0 0 0 0 0 0 0 0 0 127 0" result="hardAlpha"/>
<feOffset dy="4"/>
<feGaussianBlur stdDeviation="2"/>
<feComposite in2="hardAlpha" operator="out"/>
<feColorMatrix type="matrix" values="0 0 0 0 0 0 0 0 0 0 0 0 0 0 0 0 0 0 0.25 0"/>
<feBlend mode="normal" in2="BackgroundImageFix" result="effect1_dropShadow_0_1"/>
<feColorMatrix in="SourceAlpha" type="matrix" values="0 0 0 0 0 0 0 0 0 0 0 0 0 0 0 0 0 0 127 0" result="hardAlpha"/>
<feOffset dy="4"/>
<feGaussianBlur stdDeviation="2"/>
<feComposite in2="hardAlpha" operator="out"/>
<feColorMatrix type="matrix" values="0 0 0 0 0 0 0 0 0 0 0 0 0 0 0 0 0 0 0.25 0"/>
<feBlend mode="normal" in2="effect1_dropShadow_0_1" result="effect2_dropShadow_0_1"/>
<feBlend mode="normal" in="SourceGraphic" in2="effect2_dropShadow_0_1" result="shape"/>
</filter>
<filter id="filter3_d_0_1" x="223.064" y="798.224" width="618.493" height="109.376" filterUnits="userSpaceOnUse" color-interpolation-filters="sRGB">
<feFlood flood-opacity="0" result="BackgroundImageFix"/>
<feColorMatrix in="SourceAlpha" type="matrix" values="0 0 0 0 0 0 0 0 0 0 0 0 0 0 0 0 0 0 127 0" result="hardAlpha"/>
<feOffset dy="4"/>
<feGaussianBlur stdDeviation="2"/>
<feComposite in2="hardAlpha" operator="out"/>
<feColorMatrix type="matrix" values="0 0 0 0 0 0 0 0 0 0 0 0 0 0 0 0 0 0 0.25 0"/>
<feBlend mode="normal" in2="BackgroundImageFix" result="effect1_dropShadow_0_1"/>
<feBlend mode="normal" in="SourceGraphic" in2="effect1_dropShadow_0_1" result="shape"/>
</filter>
</defs>
</svg>
